<?xml version="1.0" encoding="utf-8"?>
<!-- Generator: Adobe Illustrator 16.0.0, SVG Export Plug-In . SVG Version: 6.00 Build 0)  -->
<!DOCTYPE svg PUBLIC "-//W3C//DTD SVG 1.1//EN" "http://www.w3.org/Graphics/SVG/1.1/DTD/svg11.dtd">
<svg version="1.1" id="Capa_1" xmlns="http://www.w3.org/2000/svg" xmlns:xlink="http://www.w3.org/1999/xlink" x="0px" y="0px"
	 width="57.167px" height="57.167px" viewBox="0 -17.167 57.167 57.167" enable-background="new 0 -17.167 57.167 57.167"
	 xml:space="preserve">
<rect y="-17.167" fill="#212529" width="57.167" height="57.167"/>
<g>
	<path fill="#FFA400" d="M29.669,17.065l-1.085,0.628l-1.086-0.628l-0.551-0.317v0.653l0.551,0.319l1.188,0.686l0.983-0.568
		l0.55-0.319v-0.771L29.669,17.065z M29.669,18.441l-1.085,0.629l-1.086-0.629l-0.551-0.32v0.658l0.551,0.318l1.188,0.686
		l0.983-0.566l0.55-0.318v-0.776L29.669,18.441z M29.669,21.196l-1.085,0.626l-1.086-0.626l-0.551-0.319v0.655l0.551,0.318
		l1.188,0.686l0.983-0.567l0.55-0.319v-0.772L29.669,21.196z M29.669,19.818l-1.085,0.627l-1.086-0.627L26.947,19.5v0.654
		l0.551,0.318l1.188,0.687l0.983-0.568l0.55-0.318V19.5L29.669,19.818z M28.822,13.424l-0.238,0.138l-0.239-0.138
		c-0.154,0.115-0.297,0.252-0.429,0.407l0.486,0.28l0.283,0.164l0.148-0.085l0.483-0.279C29.167,13.722,29.004,13.561,28.822,13.424
		z M30.062,15.463l-0.498,0.287l-0.979,0.565l-0.98-0.565l-0.497-0.287c-0.048,0.187-0.086,0.385-0.112,0.587l0.522,0.303
		l1.169,0.675l0.973-0.561l0.53-0.305C30.16,15.917,30.117,15.686,30.062,15.463z M29.61,14.345l-0.477,0.276l-0.55,0.318
		l-0.551-0.32l-0.477-0.276c-0.092,0.159-0.175,0.331-0.249,0.512l0.482,0.278l0.896,0.518l0.729-0.418l0.482-0.279
		C29.816,14.734,29.72,14.533,29.61,14.345z M31.295,27.141l-0.47,0.271l-2.241,1.294l-2.241-1.295l-0.47-0.271
		c-0.104,0.163-0.214,0.318-0.333,0.465l0.476,0.273l2.67,1.542l2.531-1.463l0.475-0.273C31.549,27.513,31.417,27.333,31.295,27.141
		z M32.334,28.328c-0.097-0.078-0.188-0.16-0.278-0.248l-0.487,0.278l-2.984,1.727l-2.987-1.727l-0.487-0.278
		c-0.088,0.086-0.181,0.17-0.275,0.248c-0.058,0.05-0.116,0.098-0.176,0.145l0.502,0.289l3.525,2.037l3.402-1.967l0.51-0.293
		C32.507,28.473,32.419,28.403,32.334,28.328z M30.416,24.896l-0.5,0.285l-1.332,0.772l-1.335-0.772l-0.497-0.285
		c-0.039,0.196-0.088,0.388-0.14,0.573l0.485,0.282l1.588,0.915l1.414-0.816l0.485-0.28C30.521,25.354,30.462,25.128,30.416,24.896z
		 M30.248,23.617l-0.53,0.303l-1.134,0.656l-1.135-0.656l-0.528-0.303c-0.014,0.21-0.034,0.418-0.059,0.619l0.512,0.295l1.312,0.76
		l1.125-0.652l0.511-0.294C30.287,24.109,30.261,23.866,30.248,23.617z M30.758,26.075l-0.478,0.273l-1.696,0.981l-1.697-0.981
		l-0.478-0.273c-0.068,0.181-0.145,0.354-0.229,0.522l0.473,0.271l2.033,1.176l1.877-1.085l0.472-0.271
		C30.933,26.492,30.839,26.287,30.758,26.075z M30.219,22.82v-0.567l-0.55,0.319L28.584,23.2l-1.086-0.628l-0.551-0.319v0.567
		c0,0.029,0,0.059,0,0.09l0.545,0.313l1.193,0.689l0.993-0.573l0.542-0.314C30.219,22.957,30.219,22.889,30.219,22.82z"/>
	<path fill="#FFA400" d="M29.031,10.625l-0.032,0.02c-0.142-0.04-0.28-0.088-0.415-0.146c-0.102-0.043-0.201-0.092-0.299-0.146
		c-0.441-0.242-0.821-0.571-1.137-0.987c-0.317-0.417-0.567-0.91-0.751-1.475c-0.096-0.299-0.168-0.61-0.213-0.936l0.011,0.007
		c-0.032-0.21-0.053-0.427-0.063-0.65l-0.005-0.002c-0.003-0.088-0.006-0.179-0.006-0.27V0.013c0-3.636-1.625-5.672-4.874-6.111
		c-0.022-0.003-0.046-0.006-0.068-0.009c-0.072-0.01-0.144-0.018-0.216-0.025c-0.042-0.005-0.086-0.009-0.129-0.012
		c-0.061-0.007-0.122-0.012-0.184-0.016c-0.062-0.005-0.125-0.007-0.188-0.012c-0.048-0.002-0.096-0.005-0.146-0.008
		c-0.113-0.004-0.229-0.007-0.347-0.009v1.525c0.379,0.016,0.725,0.069,1.036,0.163c0.457,0.137,0.841,0.359,1.152,0.665
		c0.002,0,0.002,0,0.002,0.002l0.267,0.153c0.165,0.211,0.301,0.47,0.411,0.774l-0.075-0.044c0.088,0.196,0.163,0.408,0.222,0.638
		l0.025,0.014c0.039,0.186,0.071,0.382,0.097,0.591l-0.003,0c0.009,0.066,0.018,0.134,0.024,0.203
		c0.028,0.307,0.043,0.637,0.043,0.994V6.29c0,0.701,0.088,1.33,0.263,1.888c0.176,0.558,0.422,1.051,0.737,1.475
		c0.317,0.426,0.685,0.784,1.102,1.076c0.416,0.292,0.874,0.512,1.374,0.664v0.049c-0.5,0.15-0.958,0.372-1.374,0.664
		c-0.417,0.291-0.784,0.649-1.102,1.075c-0.315,0.423-0.562,0.916-0.737,1.474c-0.175,0.56-0.263,1.188-0.263,1.889v6.804
		c0,0.354-0.015,0.686-0.043,0.991c-0.007,0.069-0.016,0.138-0.024,0.203l0.003-0.002c-0.025,0.211-0.058,0.408-0.097,0.593
		l-0.025,0.016c-0.059,0.228-0.134,0.439-0.222,0.638l0.075-0.046c-0.11,0.306-0.246,0.563-0.411,0.774l-0.267,0.154
		c0,0,0,0-0.002,0c-0.312,0.307-0.695,0.528-1.152,0.665c-0.311,0.094-0.657,0.147-1.036,0.165v1.523
		c0.118,0,0.234-0.004,0.347-0.008c0.05-0.003,0.097-0.008,0.146-0.009c0.063-0.006,0.126-0.006,0.188-0.013
		c0.062-0.004,0.123-0.01,0.184-0.014c0.043-0.006,0.087-0.01,0.129-0.013c0.072-0.009,0.144-0.017,0.216-0.026
		c0.022-0.002,0.046-0.004,0.068-0.009c3.249-0.439,4.874-2.475,4.874-6.108v-6.028c0-0.092,0.003-0.18,0.006-0.271l0.005-0.003
		c0.011-0.222,0.031-0.438,0.063-0.649l-0.011,0.007c0.045-0.325,0.117-0.638,0.213-0.937c0.184-0.566,0.434-1.058,0.751-1.474
		c0.315-0.416,0.695-0.748,1.137-0.99c0.098-0.053,0.197-0.101,0.299-0.144c0.135-0.057,0.273-0.107,0.415-0.146l0.032,0.017
		c0.223-0.062,0.454-0.101,0.692-0.115v-1.35C29.485,10.727,29.254,10.688,29.031,10.625z"/>
	<path fill="#FFA400" d="M33.997-0.625l-2.952,1.704v0.51l2.952-1.703V-0.625z M33.997,0.421l-2.952,1.703v0.51l2.952-1.704V0.421z
		 M34.038-1.494c0.007-0.073,0.017-0.145,0.026-0.216l-0.003,0.002l-3.017,1.741v0.51l2.965-1.711
		C34.019-1.28,34.026-1.389,34.038-1.494z M34.185-2.314c0.057-0.229,0.131-0.44,0.221-0.637l-0.077,0.044l-3.226,1.861
		c-0.018,0.174-0.03,0.352-0.042,0.535l3.096-1.788L34.185-2.314z M36.853-6.18c-0.034,0.002-0.069,0.003-0.104,0.005
		c-0.075,0.003-0.146,0.008-0.221,0.014c-0.092,0.006-0.183,0.015-0.273,0.023c-2.91,0.291-4.6,1.794-5.071,4.511L34.74-3.68
		l0.268-0.154c0.313-0.307,0.696-0.529,1.154-0.668c0.312-0.093,0.656-0.146,1.035-0.161V-6.19
		C37.08-6.187,36.967-6.185,36.853-6.18z M35.008,26.667l-0.268-0.153c-0.165-0.212-0.303-0.469-0.412-0.774l0.077,0.046
		c-0.09-0.198-0.164-0.409-0.221-0.638l-0.028-0.017c-0.037-0.185-0.071-0.381-0.095-0.592l0.003,0.002
		c-0.01-0.07-0.02-0.142-0.026-0.217c-0.028-0.302-0.041-0.629-0.041-0.978v-6.805c0-0.699-0.089-1.327-0.264-1.887
		c-0.175-0.558-0.42-1.051-0.737-1.474c-0.316-0.426-0.684-0.784-1.101-1.077c-0.417-0.291-0.875-0.512-1.375-0.663v-0.049
		c0.5-0.151,0.958-0.372,1.375-0.664c0.417-0.292,0.784-0.65,1.101-1.076c0.317-0.424,0.563-0.917,0.737-1.475
		c0.175-0.559,0.264-1.188,0.264-1.888V4.602L31.04,6.309l-0.003,0.002v0c-0.013,0.224-0.033,0.44-0.064,0.65l0.012-0.008
		c-0.047,0.328-0.119,0.64-0.214,0.938c-0.185,0.566-0.435,1.058-0.751,1.473c-0.316,0.417-0.695,0.747-1.138,0.989
		c-0.098,0.055-0.196,0.103-0.298,0.145c-0.135,0.059-0.273,0.107-0.415,0.146l-0.032-0.019c-0.222,0.063-0.453,0.103-0.692,0.116
		v1.352c0.239,0.013,0.471,0.052,0.692,0.114l0.032-0.017c0.142,0.038,0.28,0.087,0.415,0.146c0.102,0.043,0.2,0.091,0.298,0.145
		c0.442,0.242,0.821,0.572,1.138,0.988s0.566,0.907,0.751,1.474c0.095,0.299,0.167,0.61,0.214,0.937l-0.012-0.007
		c0.031,0.21,0.052,0.427,0.064,0.649l0,0l0.003,0.004c0.005,0.089,0.005,0.178,0.005,0.269v6.026c0,2.922,1.052,4.809,3.15,5.662
		c0.053,0.024,0.109,0.045,0.163,0.064c0.058,0.022,0.113,0.043,0.172,0.063c0.063,0.021,0.126,0.042,0.188,0.062c0,0,0,0,0.002,0
		c0.063,0.021,0.127,0.038,0.193,0.057c0.064,0.02,0.13,0.034,0.195,0.052c0.077,0.02,0.154,0.036,0.234,0.053
		c0.039,0.008,0.078,0.017,0.119,0.023c0.255,0.052,0.517,0.087,0.791,0.116c0.091,0.008,0.182,0.017,0.273,0.023
		c0.074,0.004,0.146,0.009,0.221,0.011c0.035,0.005,0.07,0.006,0.104,0.008c0.114,0.005,0.228,0.008,0.345,0.008v-1.523
		c-0.379-0.018-0.724-0.071-1.035-0.165C35.704,27.196,35.32,26.975,35.008,26.667z M33.997,3.558l-2.952,1.703v0.51l2.952-1.704
		V3.558z M33.997,1.465l-2.952,1.704V3.68l2.952-1.704V1.465z M33.997,2.512l-2.952,1.704v0.508l2.952-1.703V2.512z"/>
	<path fill="#FFA400" d="M32.334,28.329l-3.75,2.165l-3.75-2.166c-0.058,0.052-0.116,0.098-0.176,0.145l4.027,2.326l3.912-2.26
		C32.507,28.473,32.419,28.402,32.334,28.329z"/>
	<path fill="#FFA400" d="M32.334,28.328c-0.096-0.078-0.188-0.16-0.276-0.248l-3.474,2.005l-3.473-2.005
		c-0.09,0.086-0.183,0.17-0.276,0.248c-0.059,0.05-0.117,0.098-0.177,0.145l4.027,2.326l3.913-2.26
		C32.507,28.473,32.419,28.403,32.334,28.328z"/>
	<path fill="#FFA400" d="M48.134,0.129l-2.203-1.272L28.584-11.159L11.236-1.143L9.034,0.129H9.033v22.576l19.551,11.288
		l19.552-11.288V0.129H48.134z M45.931,21.434L28.584,31.449L11.236,21.434V1.4v0l2.202-1.271l15.146-8.744l15.146,8.744L45.931,1.4
		v0V21.434z"/>
	<path fill="#FFA400" d="M34.926,19.605v1.033l11.005-6.353v-1.033L34.926,19.605z M11.236,13.252v1.033l11.005,6.353v-1.034
		L11.236,13.252z M41.023,14.077c-0.753,0.924-1.604,1.761-2.539,2.497l7.446-4.299v-1.033L41.023,14.077z M16.144,14.077
		l-4.908-2.834v1.033l7.442,4.299C17.745,15.837,16.894,14.999,16.144,14.077z M43.034,10.904c-0.251,0.521-0.527,1.026-0.832,1.513
		l3.729-2.152V9.231L43.034,10.904z M14.133,10.904l-2.897-1.673v1.034l3.729,2.152C14.661,11.93,14.383,11.426,14.133,10.904z
		 M35.268,25.437c0.037,0.093,0.059,0.188,0.065,0.284c0.016,0.032,0.033,0.062,0.05,0.09l0.09,0.05
		c0.068,0.039,0.128,0.088,0.184,0.144c0.057,0.051,0.111,0.1,0.171,0.145l10.104-5.834V19.28L35.268,25.437z M11.236,19.28v1.034
		l10.105,5.834c0.057-0.045,0.109-0.087,0.159-0.139c0.002,0,0.003,0,0.003,0c0.057-0.059,0.122-0.106,0.192-0.149l0.087-0.05
		c0.019-0.028,0.036-0.059,0.053-0.091c0.008-0.095,0.027-0.19,0.065-0.283L11.236,19.28z M34.93,23.622
		c0.006,0.219,0.016,0.428,0.033,0.615c0.006,0.06,0.014,0.117,0.021,0.175c0.004,0.03,0.008,0.06,0.01,0.09
		c0.004,0.037,0.01,0.071,0.015,0.107l10.922-6.305V17.27L34.93,23.622z M11.236,17.27v1.034l10.922,6.305
		c0.005-0.036,0.011-0.073,0.017-0.112c0.001-0.028,0.003-0.058,0.008-0.085c0.008-0.055,0.014-0.11,0.02-0.168
		c0.02-0.194,0.03-0.404,0.035-0.622L11.236,17.27z M34.926,21.613v1.035l11.005-6.354V15.26L34.926,21.613z M11.236,15.26v1.034
		l11.005,6.353v-1.034L11.236,15.26z"/>
	<g>
		<g>
			<circle fill="#FFA400" cx="35.877" cy="11.417" r="2.035"/>
			<circle fill="#FFA400" cx="38.744" cy="8.866" r="0.828"/>
		</g>
		<g>
			<circle fill="#FFA400" cx="21.29" cy="11.33" r="2.034"/>
			<circle fill="#FFA400" cx="18.423" cy="8.779" r="0.829"/>
		</g>
	</g>
</g>
</svg>
