<?xml version="1.0" encoding="utf-8"?>
<!-- Generator: Adobe Illustrator 16.0.0, SVG Export Plug-In . SVG Version: 6.00 Build 0)  -->
<!DOCTYPE svg PUBLIC "-//W3C//DTD SVG 1.1//EN" "http://www.w3.org/Graphics/SVG/1.1/DTD/svg11.dtd">
<svg version="1.1" id="Capa_1" xmlns="http://www.w3.org/2000/svg" xmlns:xlink="http://www.w3.org/1999/xlink" x="0px" y="0px"
	 width="40px" height="40px" viewBox="0 0 40 40" enable-background="new 0 0 40 40" xml:space="preserve">
<g>
	<path fill="#FFA400" d="M20.954,24.964L20,25.515l-0.954-0.552l-0.484-0.279v0.575l0.484,0.28l1.043,0.603l0.864-0.499l0.483-0.28
		v-0.678L20.954,24.964z M20.954,26.173L20,26.725l-0.954-0.552l-0.484-0.28v0.576l0.484,0.279l1.043,0.604l0.864-0.499l0.483-0.279
		v-0.681L20.954,26.173z M20.954,28.593L20,29.145l-0.954-0.552l-0.484-0.279v0.575l0.484,0.28l1.043,0.602l0.864-0.498l0.483-0.28
		v-0.679L20.954,28.593z M20.954,27.383L20,27.934l-0.954-0.551l-0.484-0.279v0.575l0.484,0.279l1.043,0.604l0.864-0.499
		l0.483-0.279v-0.68L20.954,27.383z M20.21,21.764L20,21.885l-0.21-0.121c-0.136,0.102-0.261,0.222-0.376,0.357l0.427,0.247
		l0.249,0.144l0.13-0.075l0.425-0.245C20.513,22.026,20.369,21.884,20.21,21.764z M21.298,23.555l-0.437,0.253L20,24.305
		l-0.861-0.497l-0.438-0.253c-0.042,0.166-0.075,0.339-0.098,0.518l0.458,0.266l1.028,0.594l0.854-0.494l0.465-0.268
		C21.386,23.955,21.348,23.752,21.298,23.555z M20.903,22.573l-0.419,0.242L20,23.095l-0.484-0.28l-0.418-0.242
		c-0.081,0.14-0.154,0.29-0.219,0.45l0.424,0.244l0.787,0.455l0.64-0.369l0.424-0.245C21.082,22.916,20.998,22.738,20.903,22.573z
		 M22.383,33.817l-0.414,0.239L20,35.193l-1.97-1.138l-0.413-0.238c-0.091,0.143-0.188,0.278-0.292,0.408l0.417,0.24l2.347,1.354
		l2.224-1.284l0.418-0.241C22.606,34.145,22.49,33.986,22.383,33.817z M23.295,34.861c-0.084-0.069-0.164-0.143-0.243-0.22
		l-0.428,0.246L20,36.404l-2.625-1.517l-0.427-0.246c-0.078,0.076-0.159,0.15-0.243,0.219c-0.05,0.044-0.102,0.086-0.154,0.127
		l0.442,0.255l3.098,1.788l2.99-1.728l0.446-0.258C23.447,34.987,23.371,34.927,23.295,34.861z M21.61,31.845l-0.438,0.252
		L20,32.774l-1.173-0.678l-0.437-0.252c-0.035,0.173-0.077,0.341-0.123,0.504l0.427,0.247L20.09,33.4l1.242-0.718l0.427-0.246
		C21.701,32.246,21.651,32.048,21.61,31.845z M21.462,30.721l-0.465,0.267L20,31.563l-0.998-0.576l-0.464-0.267
		c-0.012,0.185-0.03,0.367-0.052,0.544l0.45,0.26l1.153,0.667l0.988-0.572l0.448-0.259C21.497,31.153,21.475,30.94,21.462,30.721z
		 M21.91,32.881l-0.419,0.241L20,33.983l-1.492-0.861l-0.419-0.241c-0.061,0.158-0.127,0.311-0.201,0.459l0.415,0.239l1.787,1.032
		l1.649-0.953l0.414-0.238C22.063,33.247,21.982,33.067,21.91,32.881z M21.438,30.021v-0.498l-0.483,0.28L20,30.354l-0.954-0.552
		l-0.484-0.28v0.498c0,0.026,0,0.052,0,0.078l0.479,0.276l1.049,0.606l0.873-0.505l0.476-0.275
		C21.438,30.142,21.438,30.082,21.438,30.021z"/>
	<path fill="#FFA400" d="M20.393,19.305l-0.028,0.017c-0.125-0.036-0.246-0.078-0.364-0.128c-0.09-0.038-0.177-0.081-0.263-0.128
		c-0.388-0.212-0.721-0.501-0.999-0.868c-0.278-0.367-0.498-0.799-0.66-1.296c-0.084-0.262-0.147-0.536-0.187-0.822l0.01,0.006
		c-0.028-0.185-0.047-0.375-0.056-0.571l-0.004-0.002c-0.003-0.078-0.005-0.157-0.005-0.237V9.979c0-3.194-1.428-4.984-4.283-5.37
		c-0.02-0.002-0.04-0.005-0.06-0.008c-0.063-0.008-0.126-0.015-0.189-0.022c-0.038-0.004-0.076-0.007-0.113-0.011
		c-0.054-0.005-0.107-0.01-0.161-0.014c-0.055-0.004-0.11-0.007-0.166-0.01c-0.042-0.002-0.084-0.005-0.127-0.007
		c-0.1-0.004-0.202-0.007-0.306-0.008v1.34c0.333,0.014,0.637,0.061,0.911,0.143c0.401,0.121,0.738,0.315,1.012,0.583
		c0.001,0.001,0.001,0.001,0.001,0.002l0.234,0.135c0.145,0.185,0.265,0.413,0.362,0.68l-0.066-0.039
		c0.077,0.172,0.143,0.358,0.195,0.561l0.022,0.013c0.035,0.163,0.063,0.336,0.085,0.52l-0.002-0.001
		c0.008,0.058,0.015,0.118,0.021,0.178c0.025,0.27,0.038,0.56,0.038,0.873v5.977c0,0.616,0.077,1.168,0.23,1.659
		c0.154,0.491,0.37,0.924,0.648,1.296c0.278,0.374,0.601,0.689,0.967,0.946c0.366,0.256,0.769,0.45,1.208,0.583v0.044
		c-0.44,0.132-0.843,0.327-1.208,0.583c-0.366,0.257-0.689,0.571-0.967,0.945c-0.278,0.372-0.494,0.805-0.648,1.296
		s-0.23,1.044-0.23,1.659v5.978c0,0.313-0.013,0.603-0.038,0.872c-0.007,0.061-0.014,0.12-0.021,0.179l0.002-0.002
		c-0.022,0.185-0.05,0.358-0.085,0.521l-0.022,0.013c-0.052,0.201-0.118,0.388-0.195,0.561l0.066-0.039
		c-0.097,0.268-0.217,0.494-0.362,0.68l-0.234,0.136c0,0,0,0-0.001,0.001c-0.274,0.269-0.611,0.464-1.012,0.584
		c-0.273,0.082-0.578,0.13-0.911,0.144v1.34c0.104,0,0.206-0.004,0.306-0.008c0.043-0.002,0.085-0.005,0.127-0.007
		c0.055-0.004,0.111-0.006,0.166-0.011c0.054-0.004,0.107-0.009,0.161-0.013c0.038-0.004,0.076-0.008,0.113-0.012
		c0.063-0.007,0.126-0.014,0.189-0.021c0.02-0.003,0.04-0.005,0.06-0.009c2.855-0.386,4.283-2.174,4.283-5.368v-5.296
		c0-0.081,0.002-0.159,0.005-0.238l0.004-0.002c0.009-0.195,0.028-0.385,0.056-0.57l-0.01,0.006c0.04-0.286,0.103-0.561,0.187-0.823
		c0.162-0.497,0.381-0.929,0.66-1.295s0.611-0.657,0.999-0.869c0.086-0.047,0.173-0.09,0.263-0.127
		c0.118-0.051,0.24-0.094,0.364-0.128l0.028,0.016c0.196-0.054,0.399-0.089,0.608-0.102v-1.187
		C20.792,19.394,20.589,19.36,20.393,19.305z"/>
	<path fill="#FFA400" d="M24.757,9.419l-2.594,1.497v0.448l2.594-1.497V9.419z M24.757,10.337l-2.594,1.497v0.448l2.594-1.497
		V10.337z M24.793,8.655c0.006-0.064,0.015-0.127,0.022-0.189l-0.002,0.002l-2.65,1.53v0.447l2.605-1.503
		C24.775,8.843,24.782,8.748,24.793,8.655z M24.921,7.935c0.051-0.201,0.116-0.387,0.194-0.56l-0.067,0.039l-2.835,1.636
		c-0.016,0.153-0.027,0.31-0.036,0.47l2.72-1.571L24.921,7.935z M27.267,4.538c-0.031,0.001-0.063,0.002-0.093,0.004
		c-0.065,0.003-0.129,0.007-0.193,0.012c-0.081,0.006-0.16,0.013-0.24,0.021c-2.557,0.255-4.042,1.577-4.457,3.964l3.126-1.804
		l0.235-0.136c0.274-0.269,0.612-0.464,1.015-0.586c0.273-0.082,0.577-0.128,0.91-0.142V4.529
		C27.466,4.531,27.366,4.533,27.267,4.538z M25.645,33.4l-0.235-0.135c-0.145-0.187-0.266-0.412-0.361-0.68l0.067,0.039
		c-0.078-0.173-0.144-0.358-0.194-0.561l-0.024-0.014c-0.033-0.162-0.063-0.335-0.083-0.52l0.002,0.002
		c-0.008-0.063-0.017-0.125-0.022-0.19c-0.024-0.266-0.036-0.553-0.036-0.86v-5.979c0-0.614-0.078-1.167-0.231-1.658
		c-0.153-0.49-0.369-0.924-0.648-1.296c-0.277-0.374-0.601-0.688-0.967-0.946c-0.366-0.255-0.769-0.449-1.209-0.582v-0.044
		c0.44-0.133,0.843-0.327,1.209-0.583c0.366-0.256,0.689-0.572,0.967-0.946c0.279-0.372,0.495-0.805,0.648-1.295
		c0.153-0.492,0.231-1.044,0.231-1.66v-1.482l-2.599,1.5l-0.003,0.001v0.001c-0.011,0.196-0.029,0.386-0.057,0.57l0.011-0.006
		c-0.041,0.288-0.104,0.562-0.188,0.824c-0.162,0.498-0.382,0.93-0.66,1.295c-0.278,0.366-0.611,0.656-0.999,0.869
		c-0.086,0.048-0.174,0.09-0.262,0.127c-0.119,0.052-0.24,0.094-0.365,0.128l-0.028-0.016c-0.195,0.055-0.398,0.09-0.609,0.102
		v1.188c0.211,0.012,0.414,0.047,0.609,0.101l0.028-0.016c0.125,0.034,0.246,0.076,0.365,0.128c0.088,0.038,0.176,0.08,0.262,0.128
		c0.388,0.212,0.721,0.502,0.999,0.868s0.498,0.798,0.66,1.295c0.084,0.263,0.146,0.536,0.188,0.823l-0.011-0.006
		c0.027,0.185,0.046,0.375,0.057,0.57l0,0l0.003,0.003c0.004,0.078,0.005,0.157,0.005,0.237v5.295c0,2.567,0.924,4.226,2.769,4.977
		c0.046,0.02,0.095,0.038,0.143,0.057c0.051,0.019,0.101,0.037,0.152,0.055c0.055,0.018,0.109,0.036,0.165,0.054c0,0,0,0,0.001,0
		c0.056,0.018,0.111,0.033,0.17,0.049c0.057,0.017,0.114,0.031,0.172,0.045c0.067,0.018,0.136,0.032,0.206,0.047
		c0.035,0.008,0.069,0.016,0.104,0.021c0.224,0.044,0.454,0.076,0.695,0.102c0.08,0.008,0.159,0.015,0.24,0.021
		c0.064,0.005,0.128,0.008,0.193,0.011c0.03,0.003,0.062,0.004,0.093,0.006c0.1,0.004,0.199,0.007,0.303,0.007v-1.34
		c-0.333-0.014-0.637-0.062-0.91-0.144C26.257,33.865,25.919,33.671,25.645,33.4z M24.757,13.094l-2.594,1.497v0.448l2.594-1.497
		V13.094z M24.757,11.256l-2.594,1.497v0.449l2.594-1.497V11.256z M24.757,12.175l-2.594,1.498v0.447l2.594-1.497V12.175z"/>
	<path fill="#FFA400" d="M23.295,34.862L20,36.764l-3.296-1.902c-0.05,0.044-0.102,0.085-0.154,0.126l3.54,2.043l3.437-1.984
		C23.447,34.987,23.371,34.926,23.295,34.862z"/>
	<path fill="#FFA400" d="M23.295,34.861c-0.083-0.069-0.164-0.143-0.242-0.22L20,36.404l-3.052-1.763
		c-0.079,0.076-0.16,0.15-0.243,0.219c-0.051,0.044-0.103,0.086-0.155,0.127l3.54,2.043l3.437-1.985
		C23.447,34.987,23.371,34.927,23.295,34.861z"/>
	<path fill="#FFA400" d="M37.18,10.081l-1.937-1.118L20,0.163L4.756,8.963l-1.936,1.118h0v19.838L20,39.838l17.181-9.919
		L37.18,10.081L37.18,10.081z M35.243,28.802L20,37.603L4.756,28.802V11.198v0l1.935-1.117L20,2.398l13.309,7.683l1.935,1.117v0
		V28.802z"/>
	<path fill="#FFA400" d="M25.573,27.195v0.908l9.67-5.583v-0.908L25.573,27.195z M4.756,21.612v0.908l9.671,5.582v-0.908
		L4.756,21.612z M30.931,22.337c-0.66,0.813-1.408,1.549-2.23,2.195l6.543-3.778v-0.907L30.931,22.337z M9.068,22.337l-4.313-2.49
		v0.907l6.541,3.777C10.476,23.885,9.728,23.147,9.068,22.337z M32.698,19.55c-0.221,0.458-0.464,0.901-0.73,1.33l3.275-1.892V18.08
		L32.698,19.55z M7.302,19.55l-2.546-1.47v0.908l3.276,1.892C7.766,20.452,7.521,20.008,7.302,19.55z M25.873,32.319
		c0.033,0.082,0.052,0.165,0.058,0.25c0.014,0.028,0.029,0.054,0.045,0.078l0.077,0.045c0.061,0.034,0.114,0.077,0.163,0.125
		c0.048,0.045,0.097,0.088,0.149,0.127l8.878-5.126v-0.909L25.873,32.319z M4.756,26.909v0.909l8.88,5.126
		c0.049-0.038,0.096-0.076,0.14-0.12c0.001,0,0.001,0,0.001-0.001c0.05-0.051,0.107-0.094,0.169-0.131l0.077-0.045
		c0.016-0.024,0.031-0.051,0.045-0.079c0.006-0.084,0.025-0.167,0.058-0.249L4.756,26.909z M25.577,30.726
		c0.004,0.192,0.013,0.375,0.029,0.541c0.004,0.052,0.011,0.102,0.018,0.151c0.004,0.027,0.008,0.054,0.009,0.08
		c0.004,0.032,0.008,0.063,0.014,0.096l9.597-5.542v-0.908L25.577,30.726z M4.756,25.144v0.908l9.598,5.542
		c0.004-0.032,0.009-0.066,0.014-0.1c0.001-0.025,0.003-0.051,0.007-0.076c0.007-0.047,0.012-0.096,0.018-0.146
		c0.016-0.172,0.026-0.355,0.031-0.547L4.756,25.144z M25.573,28.961v0.909l9.67-5.584v-0.908L25.573,28.961z M4.756,23.378v0.908
		l9.671,5.583v-0.908L4.756,23.378z"/>
	<g>
		<g>
			<circle fill="#FFA400" cx="26.409" cy="20" r="1.788"/>
			<circle fill="#FFA400" cx="28.928" cy="17.759" r="0.728"/>
		</g>
		<g>
			<circle fill="#FFA400" cx="13.591" cy="19.924" r="1.788"/>
			<circle fill="#FFA400" cx="11.072" cy="17.683" r="0.728"/>
		</g>
	</g>
</g>
</svg>
